<svg width="16" height="16" viewBox="0 0 16 16" fill="none" xmlns="http://www.w3.org/2000/svg">
<path fill-rule="evenodd" clip-rule="evenodd" d="M4.3136 1.33449L4.33135 1.33564C4.68061 1.36459 4.98396 1.53815 5.26087 1.80871C5.7871 2.32267 6.91709 3.82245 7.0024 4.23061C7.09682 4.68595 6.99587 4.98169 6.69492 5.50484L6.62197 5.63377C6.48387 5.886 6.46276 5.99015 6.50552 6.10941C7.16261 7.71756 8.2839 8.83869 9.87368 9.48799C10.0242 9.54252 10.1379 9.51127 10.4561 9.32875L10.6221 9.23482C11.0694 8.98949 11.3529 8.91195 11.771 8.99902C12.1777 9.08424 13.6784 10.215 14.1915 10.7405C14.4617 11.0171 14.6357 11.321 14.666 11.6933C14.6979 12.5981 13.5938 13.8721 12.9203 14.2552C12.1544 14.8031 11.1824 14.794 10.0926 14.2867C7.24271 13.1008 2.88331 8.7693 1.72157 5.92289L1.65202 5.76367C1.21089 4.70933 1.22045 3.79845 1.72597 3.11173C2.18723 2.34785 3.43088 1.29367 4.3136 1.33449ZM4.25973 2.30932L4.20096 2.31234C3.74789 2.37253 2.83933 3.15473 2.53676 3.65224L2.48449 3.73002C2.22383 4.15471 2.25404 4.73793 2.61694 5.53648L2.6863 5.69882C3.85664 8.32549 7.90886 12.3215 10.4856 13.3941L10.6275 13.4572C11.373 13.7732 11.9373 13.7592 12.3942 13.4352L12.428 13.4135C12.5694 13.3153 12.8954 13.019 13.1465 12.7292C13.4993 12.3222 13.699 11.9493 13.6926 11.7508C13.6855 11.6659 13.62 11.5514 13.4938 11.4222C13.1123 11.0315 11.7249 9.98607 11.5716 9.95394C11.4266 9.92374 11.3076 9.96433 10.9821 10.1515L10.8184 10.2435C10.3389 10.5021 10.0009 10.5716 9.52338 10.3982C7.67272 9.64286 6.35886 8.32919 5.5955 6.45989C5.41469 5.96008 5.51202 5.60646 5.82646 5.05843L5.90137 4.92663C6.04421 4.66871 6.07444 4.55929 6.04753 4.42948C6.0153 4.2753 4.97058 2.88869 4.57937 2.5066C4.44982 2.38003 4.33599 2.3149 4.2508 2.30784L4.25973 2.30932Z" fill="white"/>
</svg>
