<svg width="20" height="20" viewBox="0 0 20 20" fill="none" xmlns="http://www.w3.org/2000/svg">
<path fill-rule="evenodd" clip-rule="evenodd" d="M10 0C4.47715 0 0 4.47715 0 10C0 15.5228 4.47715 20 10 20C15.5228 20 20 15.5228 20 10C20 4.47715 15.5228 0 10 0ZM10 1.44774C14.7233 1.44774 18.5523 5.27672 18.5523 10C18.5523 14.7233 14.7233 18.5523 10 18.5523C5.27672 18.5523 1.44774 14.7233 1.44774 10C1.44774 5.27672 5.27672 1.44774 10 1.44774ZM13.0084 6.08461L8.09643 7.6218C7.87 7.69266 7.69266 7.87 7.6218 8.09643L6.08461 13.0084C5.91011 13.566 6.43404 14.0899 6.99164 13.9154L11.9036 12.3782C12.13 12.3073 12.3073 12.13 12.3782 11.9036L13.9154 6.99164C14.0899 6.43404 13.566 5.91011 13.0084 6.08461ZM12.1204 7.87856L11.109 11.109L7.87856 12.1204L8.89005 8.89005L12.1204 7.87856Z" fill="#65656B"/>
</svg>
