<svg width="16" height="16" viewBox="0 0 16 16" fill="none" xmlns="http://www.w3.org/2000/svg">
<path fill-rule="evenodd" clip-rule="evenodd" d="M2.64578 9.27714L9.10615 2.94439C9.93734 2.12962 11.2855 2.12962 12.1167 2.94439L12.9796 3.79024C13.8108 4.60501 13.8108 5.92654 12.9796 6.74131L6.49374 13.099C6.12287 13.4626 5.62005 13.6666 5.09521 13.6666H2.43903C2.19228 13.6666 1.99399 13.4673 2.00014 13.2255L2.06695 10.5983C2.08024 10.1017 2.28751 9.62833 2.64578 9.27714ZM12.3587 4.39885L11.4958 3.553C11.0075 3.07435 10.2153 3.07435 9.72701 3.553L9.22547 4.04463L11.8574 6.62406L12.3587 6.13271C12.847 5.65406 12.847 4.8775 12.3587 4.39885ZM3.26664 9.88575L8.6046 4.65324L11.2366 7.23267L5.87285 12.4904L5.8015 12.5545C5.60445 12.7163 5.3548 12.8059 5.09519 12.8059L2.88895 12.8056L2.9447 10.6203C2.95208 10.3446 3.06749 10.081 3.26664 9.88575ZM14 13.2363C14 12.9986 13.8034 12.8059 13.561 12.8059H8.98065L8.92107 12.8099C8.70679 12.8384 8.54162 13.0184 8.54162 13.2363C8.54162 13.474 8.73818 13.6666 8.98065 13.6666H13.561L13.6205 13.6627C13.8348 13.6342 14 13.4542 14 13.2363Z" fill="white"/>
</svg>
