<svg width="18" height="18" viewBox="0 0 18 18" fill="none" xmlns="http://www.w3.org/2000/svg">
<path fill-rule="evenodd" clip-rule="evenodd" d="M4.86233 2.11147C2.10864 2.99803 0.880398 6.00426 1.80361 8.87214C2.2721 10.2226 3.03401 11.4363 4.03503 12.4322C5.40826 13.7659 6.9169 14.9396 8.53866 15.9368L8.72283 16.0471C8.89921 16.1527 9.11985 16.1508 9.29443 16.0423L9.46637 15.9354C11.0859 14.9396 12.5945 13.7659 13.9631 12.4368C14.9688 11.4363 15.7307 10.2226 16.1953 8.88387C17.1218 6.00601 15.8885 2.99835 13.134 2.11151L12.9347 2.05217C11.6718 1.70482 10.3297 1.87598 9.19839 2.51651L8.99729 2.63572L8.79974 2.51718C7.60645 1.84008 6.1803 1.68752 4.86233 2.11147ZM8.53102 3.64073L8.67856 3.74657C8.87307 3.88587 9.13551 3.8831 9.32702 3.73972C10.3245 2.99295 11.6155 2.77565 12.7981 3.15505C14.9323 3.84216 15.9036 6.21075 15.1548 8.53652C14.7487 9.70634 14.0765 10.7772 13.1938 11.6554L12.7977 12.0316C11.7308 13.0232 10.5769 13.9207 9.35187 14.7117L9.00098 14.9324L9.10806 14.9999C7.5604 14.0482 6.11534 12.9239 4.80439 11.6508C3.92632 10.7772 3.2541 9.70634 2.84408 8.52479C2.09859 6.20854 3.06562 3.84162 5.19868 3.15487C6.32501 2.79257 7.55295 2.9722 8.53102 3.64073ZM11.9027 4.86279C11.6141 4.77068 11.3055 4.92976 11.2133 5.2181C11.1211 5.50644 11.2803 5.81486 11.5689 5.90696C12.1361 6.088 12.5405 6.59851 12.5911 7.2007C12.6165 7.50233 12.8818 7.7263 13.1837 7.70094C13.4855 7.67559 13.7097 7.41051 13.6843 7.10888C13.5966 6.06643 12.8938 5.17912 11.9027 4.86279Z" fill="white"/>
</svg>
