<svg width="16" height="16" viewBox="0 0 16 16" fill="none" xmlns="http://www.w3.org/2000/svg">
<path fill-rule="evenodd" clip-rule="evenodd" d="M11.0168 2.00003L4.97077 2C2.85775 2 1.33331 3.70767 1.33331 5.90598V10.094C1.33331 12.2923 2.85775 14 4.97077 14H11.0112C12.0261 13.9886 12.9868 13.5614 13.675 12.8177C14.3633 12.074 14.7191 11.0789 14.6595 10.064L14.6604 5.90598C14.7191 4.92114 14.3633 3.92597 13.675 3.1823C12.9868 2.43862 12.0261 2.01137 11.0168 2.00003ZM4.97077 3.01895L11.0056 3.01892C11.7382 3.02715 12.4355 3.33728 12.935 3.87708C13.4346 4.41689 13.6929 5.13925 13.6496 5.87592L13.6488 10.094C13.6929 10.8608 13.4346 11.5831 12.935 12.1229C12.4355 12.6627 11.7382 12.9729 11.0056 12.9811L4.97077 12.981C3.44184 12.981 2.34494 11.7523 2.34494 10.094V5.90598C2.34494 4.2477 3.44184 3.01895 4.97077 3.01895ZM12.016 5.75891C11.8414 5.53924 11.5231 5.5037 11.305 5.67953L8.57217 7.88283L8.49384 7.93788C8.17162 8.1397 7.7485 8.12106 7.43986 7.87875L4.68702 5.67821L4.62507 5.63574C4.41155 5.51152 4.13426 5.56021 3.97639 5.76057C3.80273 5.98097 3.83934 6.30144 4.05816 6.47636L6.81447 8.67965L6.92201 8.75836C7.61537 9.23059 8.53421 9.20449 9.19921 8.68241L11.9372 6.47503L11.9921 6.42367C12.16 6.24174 12.1747 5.95861 12.016 5.75891Z" fill="white"/>
</svg>
