<svg width="24" height="24" viewBox="0 0 24 24" fill="none" xmlns="http://www.w3.org/2000/svg">
<path fill-rule="evenodd" clip-rule="evenodd" d="M16.3344 2.00024H7.66537C4.26779 2.00024 2.00037 4.43284 2.00037 7.91624V16.0842C2.00037 19.5709 4.26174 22.0002 7.66537 22.0002H16.3334C19.738 22.0002 22.0004 19.5709 22.0004 16.0842V7.91624C22.0004 4.42975 19.7381 2.00024 16.3344 2.00024ZM7.66537 3.50024H16.3344C18.8849 3.50024 20.5004 5.23521 20.5004 7.91624V16.0842C20.5004 18.7654 18.8847 20.5002 16.3334 20.5002H7.66537C5.11513 20.5002 3.50037 18.7656 3.50037 16.0842V7.91624C3.50037 5.23862 5.12071 3.50024 7.66537 3.50024ZM8.84027 9.39824C7.40412 9.39824 6.23927 10.564 6.23927 12.0002C6.23927 13.4365 7.40412 14.6022 8.84027 14.6022C10.0164 14.6022 11.0104 13.8214 11.3325 12.7502L13.4316 12.7501V13.8517L13.4384 13.9535C13.4881 14.3196 13.8019 14.6017 14.1816 14.6017C14.5958 14.6017 14.9316 14.266 14.9316 13.8517V12.7501L16.26 12.75L16.2603 13.8522L16.2671 13.954C16.3168 14.3201 16.6306 14.6022 17.0103 14.6022C17.4245 14.6022 17.7603 14.2665 17.7603 13.8522V12.0002L17.7534 11.8985C17.7038 11.5324 17.39 11.2502 17.0103 11.2502H14.2092C14.2 11.2499 14.1908 11.2497 14.1816 11.2497C14.1723 11.2497 14.1631 11.2499 14.1539 11.2502H11.3325C11.0104 10.1791 10.0164 9.39824 8.84027 9.39824ZM8.84027 10.8982C9.44864 10.8982 9.94227 11.392 9.94227 12.0002C9.94227 12.6084 9.44864 13.1022 8.84027 13.1022C8.2328 13.1022 7.73927 12.6083 7.73927 12.0002C7.73927 11.3921 8.2328 10.8982 8.84027 10.8982Z" fill="#65656B"/>
</svg>
