<svg width="12" height="14" viewBox="0 0 12 14" fill="none" xmlns="http://www.w3.org/2000/svg">
<path fill-rule="evenodd" clip-rule="evenodd" d="M6.00288 0.333313C4.04687 0.333313 2.4612 1.92574 2.4612 3.8901C2.4612 5.85445 4.04687 7.44688 6.00288 7.44688C7.9589 7.44688 9.54456 5.85445 9.54456 3.8901C9.54456 1.92574 7.9589 0.333313 6.00288 0.333313ZM6.00288 1.29843C7.42814 1.29843 8.58355 2.45876 8.58355 3.89009C8.58355 5.32143 7.42814 6.48177 6.00288 6.48177C4.57762 6.48177 3.42221 5.32143 3.42221 3.89009C3.42221 2.45876 4.57762 1.29843 6.00288 1.29843ZM4.55339 8.88057C4.03491 8.91656 3.51083 8.99057 2.99389 9.10136C1.99614 9.30688 1.19792 9.71751 0.85818 10.3999C0.730039 10.6668 0.665613 10.9525 0.666701 11.2418C0.666316 11.529 0.73022 11.8151 0.853766 12.0768C1.17998 12.7514 1.88522 13.1331 2.83752 13.3447L3.0081 13.3803C3.51101 13.4938 4.03525 13.5701 4.563 13.606C4.60795 13.6192 4.71507 13.6314 4.832 13.6374L4.92817 13.641C4.97762 13.6422 5.03374 13.6424 5.11736 13.6424C5.87592 13.6842 6.6623 13.672 7.44503 13.6054C7.86215 13.5768 8.28209 13.5223 8.69851 13.4424L9.01007 13.3777C10.0384 13.1748 10.8084 12.789 11.1457 12.0776C11.3959 11.5494 11.3959 10.9364 11.1459 10.4085C10.8094 9.69882 10.0492 9.31624 9.00226 9.10058C8.59153 9.01289 8.17416 8.94801 7.7538 8.90657L7.44649 8.88057C6.48398 8.79566 5.5159 8.79566 4.55339 8.88057ZM7.36239 9.84198L7.37084 9.84265C7.85327 9.8766 8.33275 9.94432 8.8058 10.0453C9.58341 10.2055 10.1111 10.4711 10.2781 10.8232C10.4038 11.0887 10.4038 11.3972 10.278 11.6629C10.122 11.9919 9.64802 12.2461 8.963 12.4014L8.81302 12.4332C8.33068 12.5408 7.85278 12.6101 7.37172 12.6431C6.62531 12.7066 5.88332 12.7181 5.1432 12.678L4.88079 12.6735C4.80795 12.6698 4.74656 12.6628 4.68966 12.6514C4.23917 12.6174 3.83379 12.5636 3.4402 12.4855L3.20518 12.4358C2.42516 12.2829 1.89278 12.0162 1.72018 11.6593C1.65978 11.5313 1.62752 11.3868 1.62771 11.2406C1.62717 11.0952 1.659 10.954 1.72081 10.8252C1.88863 10.4882 2.45281 10.198 3.19072 10.046C3.66717 9.94391 4.14643 9.87623 4.62864 9.84268C5.54404 9.76201 6.45583 9.76201 7.36239 9.84198Z" fill="white"/>
</svg>
