<svg width="19" height="19" viewBox="0 0 19 19" fill="none" xmlns="http://www.w3.org/2000/svg">
<path fill-rule="evenodd" clip-rule="evenodd" d="M9.19248 1.58331C4.99007 1.58331 1.58334 4.9148 1.58334 9.02439C1.58334 13.134 4.99007 16.4655 9.19248 16.4655C10.9898 16.4655 12.6416 15.8561 13.9436 14.837L16.4168 17.2493L16.4826 17.3047C16.7123 17.4709 17.0378 17.452 17.2456 17.2483C17.4741 17.0242 17.4736 16.6614 17.2445 16.4379L14.8004 14.0539C16.0431 12.7295 16.8016 10.9636 16.8016 9.02439C16.8016 4.9148 13.3949 1.58331 9.19248 1.58331ZM9.19247 2.72944C12.7476 2.72944 15.6296 5.54778 15.6296 9.02439C15.6296 12.501 12.7476 15.3193 9.19247 15.3193C5.63735 15.3193 2.75535 12.501 2.75535 9.02439C2.75535 5.54778 5.63735 2.72944 9.19247 2.72944Z" fill="#65656B"/>
</svg>
