<svg width="24" height="24" viewBox="0 0 24 24" fill="none" xmlns="http://www.w3.org/2000/svg">
<path d="M17.2499 15C16.6885 15.0028 16.1349 15.1316 15.63 15.377C15.125 15.6223 14.6816 15.9779 14.3324 16.4175L8.84992 12.99C9.04973 12.3451 9.04973 11.6548 8.84992 11.01L14.3324 7.58247C14.8889 8.27151 15.6713 8.74135 16.541 8.90878C17.4107 9.0762 18.3116 8.93039 19.0841 8.49719C19.8566 8.06398 20.4508 7.37134 20.7615 6.54196C21.0722 5.71257 21.0793 4.79998 20.7816 3.96584C20.4839 3.13171 19.9006 2.42986 19.1349 1.98464C18.3693 1.53942 17.4708 1.37956 16.5986 1.53337C15.7264 1.68719 14.9367 2.14475 14.3696 2.82501C13.8024 3.50527 13.4943 4.36431 13.4999 5.24997C13.5035 5.58535 13.5539 5.91859 13.6499 6.23997L8.16742 9.66747C7.6834 9.05816 7.02182 8.61451 6.27438 8.39802C5.52694 8.18153 4.73066 8.20292 3.99593 8.45923C3.26119 8.71554 2.62438 9.19407 2.17378 9.8285C1.72318 10.4629 1.4811 11.2218 1.4811 12C1.4811 12.7781 1.72318 13.537 2.17378 14.1714C2.62438 14.8059 3.26119 15.2844 3.99593 15.5407C4.73066 15.797 5.52694 15.8184 6.27438 15.6019C7.02182 15.3854 7.6834 14.9418 8.16742 14.3325L13.6499 17.76C13.5539 18.0814 13.5035 18.4146 13.4999 18.75C13.4999 19.4916 13.7199 20.2167 14.1319 20.8334C14.544 21.45 15.1296 21.9307 15.8149 22.2145C16.5001 22.4983 17.2541 22.5726 17.9815 22.4279C18.7089 22.2832 19.3771 21.9261 19.9016 21.4016C20.426 20.8772 20.7832 20.209 20.9279 19.4816C21.0726 18.7541 20.9983 18.0001 20.7145 17.3149C20.4306 16.6297 19.95 16.044 19.3333 15.632C18.7166 15.2199 17.9916 15 17.2499 15ZM17.2499 2.99997C17.6949 2.99997 18.1299 3.13193 18.5 3.37916C18.87 3.6264 19.1583 3.9778 19.3286 4.38893C19.4989 4.80007 19.5435 5.25247 19.4567 5.68892C19.3699 6.12538 19.1556 6.52629 18.8409 6.84096C18.5262 7.15563 18.1253 7.36992 17.6889 7.45674C17.2524 7.54355 16.8 7.499 16.3889 7.3287C15.9777 7.1584 15.6263 6.87001 15.3791 6.5C15.1319 6.12999 14.9999 5.69498 14.9999 5.24997C14.9999 4.65323 15.237 4.08094 15.6589 3.65898C16.0809 3.23702 16.6532 2.99997 17.2499 2.99997ZM5.24992 14.25C4.80491 14.25 4.36989 14.118 3.99988 13.8708C3.62987 13.6235 3.34149 13.2721 3.17119 12.861C3.00089 12.4499 2.95633 11.9975 3.04315 11.561C3.12997 11.1246 3.34426 10.7236 3.65893 10.409C3.97359 10.0943 4.37451 9.88002 4.81096 9.7932C5.24742 9.70639 5.69982 9.75094 6.11095 9.92124C6.52209 10.0915 6.87349 10.3799 7.12072 10.7499C7.36796 11.1199 7.49992 11.555 7.49992 12C7.49992 12.5967 7.26286 13.169 6.84091 13.591C6.41895 14.0129 5.84665 14.25 5.24992 14.25ZM17.2499 21C16.8049 21 16.3699 20.868 15.9999 20.6208C15.6299 20.3735 15.3415 20.0221 15.1712 19.611C15.0009 19.1999 14.9563 18.7475 15.0431 18.311C15.13 17.8746 15.3443 17.4736 15.6589 17.159C15.9736 16.8443 16.3745 16.63 16.811 16.5432C17.2474 16.4564 17.6998 16.5009 18.111 16.6712C18.5221 16.8415 18.8735 17.1299 19.1207 17.4999C19.368 17.8699 19.4999 18.305 19.4999 18.75C19.4999 19.3467 19.2629 19.919 18.8409 20.341C18.419 20.7629 17.8467 21 17.2499 21Z" fill="white"/>
</svg>
